mtllib materials.mtl
v 0.01559341 0.5187483 -0.0262143
v -0.1636402 0.4883411 0.05545127
v -0.1996941 0.5879989 -0.04560724
v -0.1337795 0.6424677 0.2037959
v 0.00108768 0.4792888 0.1623407
v 0.1060165 0.6185803 0.2304938
v 0.1793172 0.4769323 0.07944775
v 0.2370609 0.635103 0.03314117
v 0.1928189 0.483628 -0.1103346
v 0.1313444 0.6165035 -0.1817106
v 0.02809106 0.4926803 -0.217224
v -0.07442114 0.5804195 -0.2071204
v -0.1501385 0.4950368 -0.1343311
v -0.3232636 0.3960738 0.1248119
v -0.3604323 0.4040242 -0.05701351
v -0.1963422 0.3869365 0.2648942
v -0.01367654 0.379061 0.3256984
v 0.1757883 0.3745571 0.2909319
v 0.3212854 0.374632 0.1699107
v 0.3838289 0.3792655 -0.004938066
v 0.3466602 0.387216 -0.1867636
v 0.2197389 0.3963531 -0.3268457
v 0.03707319 0.4042288 -0.3876499
v -0.1523917 0.4087325 -0.3528835
v -0.2978888 0.4086577 -0.2318621
v -0.4941012 0.2637868 -0.07147089
v -0.2730233 0.2407646 0.3622342
v 0.2283468 0.224086 0.3973147
v 0.5086391 0.2304294 -0.001309812
v 0.2875612 0.2534516 -0.4350148
v -0.2138088 0.2701304 -0.4700954
v -0.5113559 0.07659304 0.1956484
v -0.5683014 0.08877397 -0.0829244
v -0.316901 0.06259406 0.4102668
v -0.03704095 0.05052793 0.5034242
v 0.2532361 0.04362774 0.4501589
v 0.4761505 0.04374254 0.2647436
v 0.5719726 0.05084133 -0.003140181
v 0.5150269 0.06302214 -0.281713
v 0.3205722 0.07702112 -0.4963313
v 0.04071216 0.08908737 -0.5894887
v -0.2495648 0.09598744 -0.5362234
v -0.4724794 0.09587276 -0.350808
v -0.5740834 -0.09990525 -0.08999258
v -0.3226831 -0.1260852 0.4031985
v 0.247454 -0.1450515 0.4430907
v 0.5661905 -0.1378379 -0.0102084
v 0.3147901 -0.1116581 -0.5033995
v -0.2553469 -0.09269178 -0.5432916
v -0.4606729 -0.2902051 0.1531498
v -0.5107499 -0.2794935 -0.09182295
v -0.2896721 -0.3025156 0.3418821
v -0.04356733 -0.3131264 0.4238033
v 0.211698 -0.3191943 0.3769626
v 0.4077256 -0.3190935 0.2139111
v 0.4919902 -0.3128508 -0.02166191
v 0.441913 -0.3021392 -0.2666347
v 0.2709123 -0.2898287 -0.4553669
v 0.0248076 -0.2792178 -0.5372881
v -0.2304577 -0.27315 -0.4904474
v -0.4264855 -0.2732508 -0.3273958
v -0.3487712 -0.4362799 0.09363079
v -0.03918408 -0.4532927 0.2945172
v 0.2957779 -0.4577216 0.1387295
v 0.3211527 -0.4451377 -0.2179447
v 0.01156567 -0.4281248 -0.4188311
v -0.3233964 -0.4236959 -0.2630433
v -0.1949297 -0.532692 0.01720184
v -0.2147067 -0.5284616 -0.07954545
v -0.1273963 -0.5375537 0.09173805
v -0.03020194 -0.5417442 0.1240912
v 0.07061017 -0.5441406 0.1055924
v 0.1480275 -0.5441008 0.04119831
v 0.1813062 -0.5416354 -0.0518367
v 0.1615292 -0.5374051 -0.148584
v 0.09399575 -0.5325432 -0.2231202
v -0.003198579 -0.5283527 -0.2554733
v -0.1040106 -0.5259563 -0.2369745
v -0.181428 -0.5259961 -0.1725804
v -0.01770431 -0.5678123 -0.06691843
v 0.6108483 0.3284872 0.3270184
v -0.02761847 0.285108 0.6608369
v 0.6334416 0.3282036 -0.357118
v 0.6207356 -0.1488453 0.3746099
v -0.02180186 -0.1444747 0.7492924
v 0.6990478 -0.1691867 -0.4139691
v 0.194643 -0.6322179 0.3907009
v 0.4871651 -0.6303563 -0.04899448
v 0.2370697 -0.6424677 -0.4243034
v 0.03889109 -0.1198536 -0.7492924
v 0.01138052 0.4312021 -0.7137563
v -0.2546853 -0.6094013 -0.4684518
v -0.5765891 0.4561589 -0.3560801
v -0.6231017 -0.06385624 -0.5227016
v -0.4754492 -0.6418117 -0.08265825
v -0.2444265 -0.6295843 0.3249924
v -0.6990478 -0.1327471 0.2422245
v -0.6565735 0.3888813 0.2857384
vn 0.1759925 0.7315779 0.6586505
vn -0.3976536 0.675105 -0.6213733
vn 0.7800624 0.5976981 0.1850936
vn -0.8110707 0.5819257 0.05938535
vn 0.486649 0.7425593 -0.4601941
vn -0.425304 0.3938309 0.8148704
vn -0.1859829 0.7037672 -0.6856544
vn 0.4411136 0.5744573 0.6895053
vn -0.7407954 0.6573641 -0.1381834
vn 0.6454911 0.7612748 -0.06166082
vn -0.4193381 0.7749689 0.4728411
vn 0.2920182 0.7372004 -0.6093119
vn -0.2786779 0.9424034 0.1849716
vn -0.2786779 0.9424034 0.1849716
vn 0.004507299 0.9265649 0.3761079
vn 0.004507299 0.9265649 0.3761079
vn 0.3119484 0.9227555 0.2262974
vn 0.3119484 0.9227555 0.2262974
vn 0.3362044 0.9347845 -0.1146495
vn 0.3362044 0.9347845 -0.1146495
vn 0.05301926 0.950623 -0.3057857
vn 0.05301926 0.950623 -0.3057857
vn -0.2544219 0.9544324 -0.1559751
vn -0.2544219 0.9544324 -0.1559751
vn -0.6174191 0.786468 -0.01617747
vn -0.5543524 0.7723082 0.3102153
vn -0.3364645 0.75623 0.5611665
vn -0.02213829 0.7425416 0.669434
vn 0.3044027 0.7349108 0.6060076
vn 0.5556621 0.7353822 0.3878824
vn 0.6643152 0.7438295 0.0735046
vn 0.6012483 0.7579894 -0.2528883
vn 0.3833605 0.7740676 -0.5038394
vn 0.06903438 0.787756 -0.6121069
vn -0.2575065 0.7953868 -0.5486804
vn -0.5087662 0.7949154 -0.330555
vn -0.8481334 0.5281387 -0.04170537
vn -0.4696042 0.4873991 0.7361481
vn -0.4696042 0.4873991 0.7361481
vn 0.3938338 0.4586758 0.7965623
vn 0.3938338 0.4586758 0.7965623
vn 0.8787426 0.4706921 0.07912295
vn 0.8787426 0.4706921 0.07912295
vn 0.5002134 0.5114316 -0.6987305
vn 0.5002134 0.5114316 -0.6987305
vn -0.3632244 0.5401549 -0.7591447
vn -0.3632244 0.5401549 -0.7591447
vn -0.8481334 0.5281387 -0.04170537
vn -0.9765502 0.206108 -0.06220299
vn -0.8799263 0.1844139 0.4378598
vn -0.5461027 0.1597807 0.8223394
vn -0.06452706 0.1388088 0.9882147
vn 0.4357628 0.1271177 0.8910398
vn 0.8207145 0.12784 0.5568526
vn 0.9871807 0.1407821 0.07519791
vn 0.8905567 0.1624763 -0.4248649
vn 0.5567331 0.1871095 -0.8093444
vn 0.07515757 0.2080813 -0.9752197
vn -0.4251322 0.2197724 -0.8780448
vn -0.8100842 0.2190501 -0.5438573
vn -0.9871807 -0.1407822 -0.075198
vn -0.5567331 -0.1871096 0.8093443
vn -0.5567331 -0.1871096 0.8093443
vn 0.4251323 -0.2197725 0.8780447
vn 0.4251323 -0.2197725 0.8780447
vn 0.9765502 -0.2061081 0.0622029
vn 0.9765502 -0.2061081 0.0622029
vn 0.5461026 -0.1597808 -0.8223394
vn 0.5461026 -0.1597808 -0.8223394
vn -0.4357626 -0.1271178 -0.8910399
vn -0.4357626 -0.1271178 -0.8910399
vn -0.9871807 -0.1407822 -0.075198
vn -0.8787426 -0.4706922 -0.07912303
vn -0.793773 -0.4897696 0.3606247
vn -0.5002134 -0.5114318 0.6987304
vn -0.07672291 -0.5298741 0.8445988
vn 0.3632246 -0.5401551 0.7591446
vn 0.7017454 -0.5395199 0.4652653
vn 0.8481333 -0.5281388 0.04170528
vn 0.7631636 -0.5090613 -0.3980426
vn 0.4696041 -0.4873992 -0.7361481
vn 0.04611369 -0.4689569 -0.8820164
vn -0.3938337 -0.4586759 -0.7965623
vn -0.7323548 -0.459311 -0.5026827
vn -0.6012484 -0.7579894 0.2528881
vn -0.6012484 -0.7579894 0.2528881
vn -0.06903436 -0.787756 0.6121069
vn -0.06903436 -0.787756 0.6121069
vn 0.5087661 -0.7949154 0.3305551
vn 0.5087661 -0.7949154 0.3305551
vn 0.5543523 -0.7723082 -0.3102154
vn 0.5543523 -0.7723082 -0.3102154
vn 0.02213831 -0.7425416 -0.669434
vn 0.02213831 -0.7425416 -0.669434
vn -0.5556622 -0.7353822 -0.3878822
vn -0.5556622 -0.7353822 -0.3878822
vn -0.3697614 -0.9272503 -0.05902053
vn -0.3362043 -0.9347846 0.1146494
vn -0.2202686 -0.9433396 0.2481777
vn -0.05301924 -0.950623 0.3057856
vn 0.1207295 -0.9546833 0.2720371
vn 0.2544218 -0.9544325 0.1559751
vn 0.3122349 -0.9499377 -0.01130172
vn 0.2786777 -0.9424034 -0.1849716
vn 0.1627421 -0.9338484 -0.3184999
vn -0.0045073 -0.926565 -0.3761078
vn -0.178256 -0.9225047 -0.3423593
vn -0.3119484 -0.9227555 -0.2262972
vn -0.1391838 0.8509533 0.5064647
vn 0.3359424 0.868695 -0.3640217
vn 0.2550712 -0.320199 0.9123658
vn 0.9050581 -0.3921293 -0.1646337
vn -0.4332598 0.8723366 0.2265278
vn 0.466154 0.8466322 0.2567378
vn -0.6829967 -0.3878855 0.6189187
vn 0.5755109 -0.4714988 0.6681888
vn 0.3926395 0.8423374 0.369191
vn -0.08867615 0.8855317 -0.4560375
vn 0.9118372 -0.3430318 0.2255706
vn 0.2802076 -0.3762454 -0.8831325
vn 0.153396 0.57402 0.804345
vn 0.8223528 0.560024 -0.1005434
vn 0.111469 -0.7523325 0.6492847
vn 0.6721196 -0.7312703 -0.1161853
vn -0.5725595 0.624709 0.530956
vn 0.5615409 0.6648925 0.492534
vn -0.5266934 -0.7398572 0.4185756
vn 0.4411461 -0.8085334 0.3894406
vn 0.822242 0.5205306 0.2301434
vn 0.264416 0.6269326 -0.73283
vn 0.5519146 -0.7975482 0.2435306
vn 0.03302076 -0.7699911 -0.6371996
vn -0.3403092 0.05972764 0.9384148
vn 0.9357235 -0.03558064 0.3509351
vn -0.6134986 -0.7893596 0.02304124
vn 0.3784148 -0.8251085 -0.4195215
vn 0.663409 -0.07417835 0.7445711
vn 0.7376571 0.04677309 -0.6735535
vn -0.2440275 -0.8249347 0.5098367
vn -0.2135147 -0.7559031 -0.6188877
vn 0.9536503 -0.1159809 -0.2776681
vn -0.09818706 -0.07797068 -0.9921088
vn 0.2742074 -0.7483923 0.6039198
vn -0.6870371 -0.7203876 -0.09498274
vn 0.5693607 0.4962907 -0.6553807
vn -0.4460002 0.5461915 -0.7090546
vn 0.4745709 -0.718452 -0.5085363
vn -0.4528298 -0.6979872 -0.5547603
vn 0.519601 0.8538929 0.02969084
vn -0.496475 0.8610107 0.1103322
vn 0.6187856 -0.2207876 -0.7538948
vn -0.5798904 -0.3216084 -0.7485288
vn 0.2351986 -0.0803083 -0.9686239
vn -0.9346917 0.04427573 -0.3526914
vn 0.570878 -0.8174232 -0.07692719
vn -0.4086604 -0.7408327 0.53307
vn 0.3205931 0.8636372 -0.3890384
vn -0.121049 0.8057744 0.5797196
vn -0.3510408 -0.1150363 -0.9292669
vn -0.9570333 -0.2752114 0.09135602
vn 0.01821839 0.7244199 -0.6891182
vn -0.7908685 0.5959358 0.1392389
vn -0.09504494 -0.7252542 -0.6818891
vn -0.741698 -0.6701413 0.02819178
vn -0.7763066 -0.05976315 0.6275161
vn -0.7076026 -0.08668039 -0.701274
vn 0.3062142 -0.721449 0.621083
vn 0.3231292 -0.7266536 -0.6062691
vn -0.9418051 -0.1459247 0.3028354
vn 0.1697908 -0.02738188 0.9850997
vn -0.3650996 -0.7888324 -0.4944147
vn 0.6538276 -0.7560588 0.02974043
vn -0.7501036 0.6234708 -0.2205193
vn -0.3498779 0.4911777 0.7977029
vn -0.6012467 -0.740853 -0.2993982
vn -0.2541699 -0.7382456 0.6248127
vn -0.2165773 0.8864827 -0.4089532
vn 0.2233763 0.8366911 0.5000509
vn -0.8968086 -0.3329947 -0.2912883
vn -0.3249535 -0.398528 0.8576599
vn -0.97272 0.2282655 -0.04136118
vn 0.4154125 0.1140721 0.9024522
vn -0.5780681 0.03661217 0.8151667
vn 0.9367214 0.3087138 0.1650722
vn 0.4231415 0.1088635 0.8994999
vn 0.6067486 0.4460115 -0.6579741
vn 0.915925 0.398612 -0.04679705
vn -0.2565854 0.458058 -0.8510857
vn 0.3554865 0.505849 -0.7859683
vn -0.8128223 0.5446121 -0.2066825
vn -0.5810142 0.4662713 0.6670935
vn -0.4751878 0.4616121 -0.7490733
usemtl mat12
f 3//1 2//1 1//1
f 2//2 4//2 1//2
f 4//3 5//3 1//3
f 5//4 6//4 1//4
f 6//5 7//5 1//5
f 7//6 8//6 1//6
f 8//7 9//7 1//7
f 9//8 10//8 1//8
f 10//9 11//9 1//9
f 11//10 12//10 1//10
f 12//11 13//11 1//11
f 13//12 3//12 1//12
f 15//13 14//13 2//13
f 14//14 16//14 2//14
f 16//15 17//15 5//15
f 17//16 18//16 5//16
f 18//17 19//17 7//17
f 19//18 20//18 7//18
f 20//19 21//19 9//19
f 21//20 22//20 9//20
f 22//21 23//21 11//21
f 23//22 24//22 11//22
f 24//23 25//23 13//23
f 25//24 15//24 13//24
f 26//25 14//25 15//25
f 27//26 16//26 14//26
f 27//27 17//27 16//27
f 28//28 18//28 17//28
f 28//29 19//29 18//29
f 29//30 20//30 19//30
f 29//31 21//31 20//31
f 30//32 22//32 21//32
f 30//33 23//33 22//33
f 31//34 24//34 23//34
f 31//35 25//35 24//35
f 26//36 15//36 25//36
f 33//37 32//37 26//37
f 32//38 34//38 27//38
f 34//39 35//39 27//39
f 35//40 36//40 28//40
f 36//41 37//41 28//41
f 37//42 38//42 29//42
f 38//43 39//43 29//43
f 39//44 40//44 30//44
f 40//45 41//45 30//45
f 41//46 42//46 31//46
f 42//47 43//47 31//47
f 43//48 33//48 26//48
f 44//49 32//49 33//49
f 45//50 34//50 32//50
f 45//51 35//51 34//51
f 46//52 36//52 35//52
f 46//53 37//53 36//53
f 47//54 38//54 37//54
f 47//55 39//55 38//55
f 48//56 40//56 39//56
f 48//57 41//57 40//57
f 49//58 42//58 41//58
f 49//59 43//59 42//59
f 44//60 33//60 43//60
f 51//61 50//61 44//61
f 50//62 52//62 45//62
f 52//63 53//63 45//63
f 53//64 54//64 46//64
f 54//65 55//65 46//65
f 55//66 56//66 47//66
f 56//67 57//67 47//67
f 57//68 58//68 48//68
f 58//69 59//69 48//69
f 59//70 60//70 49//70
f 60//71 61//71 49//71
f 61//72 51//72 44//72
f 62//73 50//73 51//73
f 62//74 52//74 50//74
f 63//75 53//75 52//75
f 63//76 54//76 53//76
f 64//77 55//77 54//77
f 64//78 56//78 55//78
f 65//79 57//79 56//79
f 65//80 58//80 57//80
f 66//81 59//81 58//81
f 66//82 60//82 59//82
f 67//83 61//83 60//83
f 67//84 51//84 61//84
f 69//85 68//85 62//85
f 68//86 70//86 62//86
f 70//87 71//87 63//87
f 71//88 72//88 63//88
f 72//89 73//89 64//89
f 73//90 74//90 64//90
f 74//91 75//91 65//91
f 75//92 76//92 65//92
f 76//93 77//93 66//93
f 77//94 78//94 66//94
f 78//95 79//95 67//95
f 79//96 69//96 67//96
f 80//97 68//97 69//97
f 80//98 70//98 68//98
f 80//99 71//99 70//99
f 80//100 72//100 71//100
f 80//101 73//101 72//101
f 80//102 74//102 73//102
f 80//103 75//103 74//103
f 80//104 76//104 75//104
f 80//105 77//105 76//105
f 80//106 78//106 77//106
f 80//107 79//107 78//107
f 80//108 69//108 79//108
f 28//109 81//109 19//109
f 19//110 81//110 29//110
f 37//111 81//111 28//111
f 29//112 81//112 37//112
f 27//113 82//113 17//113
f 17//114 82//114 28//114
f 35//115 82//115 27//115
f 28//116 82//116 35//116
f 29//117 83//117 21//117
f 21//118 83//118 30//118
f 39//119 83//119 29//119
f 30//120 83//120 39//120
f 46//121 84//121 37//121
f 37//122 84//122 47//122
f 55//123 84//123 46//123
f 47//124 84//124 55//124
f 45//125 85//125 35//125
f 35//126 85//126 46//126
f 53//127 85//127 45//127
f 46//128 85//128 53//128
f 47//129 86//129 39//129
f 39//130 86//130 48//130
f 57//131 86//131 47//131
f 48//132 86//132 57//132
f 63//133 87//133 54//133
f 54//134 87//134 64//134
f 72//135 87//135 63//135
f 64//136 87//136 72//136
f 64//137 88//137 56//137
f 56//138 88//138 65//138
f 74//139 88//139 64//139
f 65//140 88//140 74//140
f 65//141 89//141 58//141
f 58//142 89//142 66//142
f 76//143 89//143 65//143
f 66//144 89//144 76//144
f 48//145 90//145 41//145
f 41//146 90//146 49//146
f 59//147 90//147 48//147
f 49//148 90//148 59//148
f 30//149 91//149 23//149
f 23//150 91//150 31//150
f 41//151 91//151 30//151
f 31//152 91//152 41//152
f 66//153 92//153 60//153
f 60//154 92//154 67//154
f 78//155 92//155 66//155
f 67//156 92//156 78//156
f 31//157 93//157 25//157
f 25//158 93//158 26//158
f 43//159 93//159 31//159
f 26//160 93//160 43//160
f 49//161 94//161 43//161
f 43//162 94//162 44//162
f 61//163 94//163 49//163
f 44//164 94//164 61//164
f 51//165 95//165 62//165
f 67//166 95//166 51//166
f 62//167 95//167 69//167
f 69//168 95//168 67//168
f 62//169 96//169 52//169
f 52//170 96//170 63//170
f 70//171 96//171 62//171
f 63//172 96//172 70//172
f 44//173 97//173 32//173
f 32//174 97//174 45//174
f 50//175 97//175 44//175
f 45//176 97//176 50//176
f 26//177 98//177 14//177
f 14//178 98//178 27//178
f 32//179 98//179 26//179
f 27//180 98//180 32//180
f 16//181 4//181 2//181
f 5//182 4//182 16//182
f 18//183 6//183 5//183
f 7//184 6//184 18//184
f 20//185 8//185 7//185
f 9//186 8//186 20//186
f 22//187 10//187 9//187
f 11//188 10//188 22//188
f 24//189 12//189 11//189
f 13//190 12//190 24//190
f 2//191 3//191 15//191
f 15//192 3//192 13//192
